HIERARCHY
ROOT Hips
{
	OFFSET 0.000000 71.427986 0.000000
	CHANNELS 6 Xposition Yposition Zposition Xrotation Yrotation Zrotation
	JOINT Pelvis
	{
		OFFSET 0.000000 0.000000 0.000000
		CHANNELS 3 Xrotation Yrotation Zrotation
		JOINT LeftUpLeg
		{
			OFFSET 6.797100 -2.508499 -1.318700
			CHANNELS 3 Xrotation Yrotation Zrotation
			JOINT LeftLeg
			{
				OFFSET 0.069008 -29.241863 0.690200
				CHANNELS 3 Xrotation Yrotation Zrotation
				JOINT LeftFoot
				{
					OFFSET -0.069008 -29.568123 -0.266800
					CHANNELS 3 Xrotation Yrotation Zrotation
					JOINT LeftToeBase
					{
						OFFSET 3.145500 -8.631000 16.059900
						CHANNELS 3 Xrotation Yrotation Zrotation
						End Site
						{
							OFFSET 0.000000 18.501587 0.000000
						}
					}
				}
			}
			JOINT Left_ShortSleeve
			{
				OFFSET 0.265923 -10.480953 1.153800
				CHANNELS 3 Xrotation Yrotation Zrotation
				End Site
				{
					OFFSET 1.725763 19.823879 0.000000
				}
			}
		}
		JOINT RightUpLeg
		{
			OFFSET -6.797100 -2.508499 -1.318700
			CHANNELS 3 Xrotation Yrotation Zrotation
			JOINT RightLeg
			{
				OFFSET -0.082453 -29.241932 0.688000
				CHANNELS 3 Xrotation Yrotation Zrotation
				JOINT RightFoot
				{
					OFFSET 0.082453 -29.568058 -0.264600
					CHANNELS 3 Xrotation Yrotation Zrotation
					JOINT RightToeBase
					{
						OFFSET -3.115300 -8.682800 16.113400
						CHANNELS 3 Xrotation Yrotation Zrotation
						End Site
						{
							OFFSET 0.000000 18.567114 0.000000
						}
					}
				}
			}
			JOINT Right_ShortSleeve
			{
				OFFSET -0.265923 -10.480953 1.153800
				CHANNELS 3 Xrotation Yrotation Zrotation
				End Site
				{
					OFFSET -1.725766 19.823910 0.000000
				}
			}
		}
	}
	JOINT Spine
	{
		OFFSET 0.000000 13.368103 0.470500
		CHANNELS 3 Xrotation Yrotation Zrotation
		JOINT Spine1
		{
			OFFSET 0.147000 13.837402 0.538800
			CHANNELS 3 Xrotation Yrotation Zrotation
			JOINT Spine2
			{
				OFFSET 0.168000 16.242897 -1.435500
				CHANNELS 3 Xrotation Yrotation Zrotation
				JOINT Neck
				{
					OFFSET 0.217200 18.631500 -1.679100
					CHANNELS 3 Xrotation Yrotation Zrotation
					JOINT Head
					{
						OFFSET 0.000000 6.599396 1.385900
						CHANNELS 3 Xrotation Yrotation Zrotation
						JOINT Hat
						{
							OFFSET -0.532200 27.220596 -10.096100
							CHANNELS 3 Xrotation Yrotation Zrotation
							End Site
							{
								OFFSET 0.000000 22.029861 0.000000
							}
						}
						JOINT HairD
						{
							OFFSET -10.777400 17.437393 -1.325900
							CHANNELS 3 Xrotation Yrotation Zrotation
							JOINT HairD1
							{
								OFFSET -3.290299 -11.051193 1.062200
								CHANNELS 3 Xrotation Yrotation Zrotation
								End Site
								{
									OFFSET 0.000000 11.579437 0.000000
								}
							}
						}
						JOINT HairB
						{
							OFFSET -10.777400 17.437393 1.467900
							CHANNELS 3 Xrotation Yrotation Zrotation
							JOINT HairB1
							{
								OFFSET -1.561200 -12.956299 3.590200
								CHANNELS 3 Xrotation Yrotation Zrotation
								End Site
								{
									OFFSET 0.000000 13.534866 0.000000
								}
							}
						}
						JOINT HairA
						{
							OFFSET 9.713100 17.437393 1.467900
							CHANNELS 3 Xrotation Yrotation Zrotation
							JOINT HairA1
							{
								OFFSET 1.561200 -12.956299 3.590200
								CHANNELS 3 Xrotation Yrotation Zrotation
								End Site
								{
									OFFSET 0.000000 13.534866 0.000000
								}
							}
						}
						JOINT HairC
						{
							OFFSET 9.713100 17.437393 -1.325900
							CHANNELS 3 Xrotation Yrotation Zrotation
							JOINT HairC1
							{
								OFFSET 3.290300 -11.051193 1.062200
								CHANNELS 3 Xrotation Yrotation Zrotation
								End Site
								{
									OFFSET 0.000000 11.579437 0.000000
								}
							}
						}
					}
				}
				JOINT LeftShoulder
				{
					OFFSET 5.101800 15.108002 -2.763700
					CHANNELS 3 Xrotation Yrotation Zrotation
					JOINT LeftArm
					{
						OFFSET 9.825497 2.506317 -1.597400
						CHANNELS 3 Xrotation Yrotation Zrotation
						JOINT LeftForeArm
						{
							OFFSET 21.966244 0.000000 0.000000
							CHANNELS 3 Xrotation Yrotation Zrotation
							JOINT LeftHand
							{
								OFFSET 33.879036 0.000000 0.000000
								CHANNELS 3 Xrotation Yrotation Zrotation
								JOINT LeftHandThumb1
								{
									OFFSET 6.715286 -2.359680 3.363841
									CHANNELS 3 Xrotation Yrotation Zrotation
									JOINT LeftHandThumb2
									{
										OFFSET 2.507072 -1.447464 1.447461
										CHANNELS 3 Xrotation Yrotation Zrotation
										JOINT LeftHandThumb3
										{
											OFFSET 2.898338 -1.673355 1.673357
											CHANNELS 3 Xrotation Yrotation Zrotation
											End Site
											{
												OFFSET -0.295959 3.727692 -0.131651
											}
										}
									}
								}
								JOINT LeftHandIndex1
								{
									OFFSET 14.190811 -0.254547 3.840278
									CHANNELS 3 Xrotation Yrotation Zrotation
									JOINT LeftHandIndex2
									{
										OFFSET 3.551727 0.000000 -0.000000
										CHANNELS 3 Xrotation Yrotation Zrotation
										JOINT LeftHandIndex3
										{
											OFFSET 2.894196 0.000000 0.000000
											CHANNELS 3 Xrotation Yrotation Zrotation
											End Site
											{
												OFFSET -1.000603 2.690872 0.366626
											}
										}
									}
								}
								JOINT LeftHandMiddle1
								{
									OFFSET 13.776489 0.000000 0.000000
									CHANNELS 3 Xrotation Yrotation Zrotation
									JOINT LeftHandMiddle2
									{
										OFFSET 3.438232 0.000000 0.000000
										CHANNELS 3 Xrotation Yrotation Zrotation
										JOINT LeftHandMiddle3
										{
											OFFSET 3.691551 0.000000 0.000000
											CHANNELS 3 Xrotation Yrotation Zrotation
											End Site
											{
												OFFSET -1.082298 3.499527 0.457670
											}
										}
									}
								}
								JOINT LeftHandRing1
								{
									OFFSET 13.966164 -0.268127 -3.067488
									CHANNELS 3 Xrotation Yrotation Zrotation
									JOINT LeftHandRing2
									{
										OFFSET 3.162567 0.000000 0.000000
										CHANNELS 3 Xrotation Yrotation Zrotation
										JOINT LeftHandRing3
										{
											OFFSET 3.324348 0.000000 0.000000
											CHANNELS 3 Xrotation Yrotation Zrotation
											End Site
											{
												OFFSET -0.861900 3.184998 0.405154
											}
										}
									}
								}
								JOINT LeftHandPinky1
								{
									OFFSET 13.131393 -0.168503 -5.746925
									CHANNELS 3 Xrotation Yrotation Zrotation
									JOINT LeftHandPinky2
									{
										OFFSET 2.849182 0.000000 0.000000
										CHANNELS 3 Xrotation Yrotation Zrotation
										JOINT LeftHandPinky3
										{
											OFFSET 2.805038 0.000000 0.000000
											CHANNELS 3 Xrotation Yrotation Zrotation
											End Site
											{
												OFFSET -0.882500 2.642609 0.325652
											}
										}
									}
								}
							}
							JOINT Left_Sleeve
							{
								OFFSET 6.592125 -0.646545 0.805568
								CHANNELS 3 Xrotation Yrotation Zrotation
								End Site
								{
									OFFSET -0.000179 20.275787 -0.000000
								}
							}
						}
					}
				}
				JOINT RightShoulder
				{
					OFFSET -5.731700 15.108002 -2.763700
					CHANNELS 3 Xrotation Yrotation Zrotation
					JOINT RightArm
					{
						OFFSET -9.825497 2.506317 -1.597400
						CHANNELS 3 Xrotation Yrotation Zrotation
						JOINT RightForeArm
						{
							OFFSET -21.966242 0.000000 0.000000
							CHANNELS 3 Xrotation Yrotation Zrotation
							JOINT RightHand
							{
								OFFSET -33.879032 0.000000 0.000000
								CHANNELS 3 Xrotation Yrotation Zrotation
								JOINT RightHandThumb1
								{
									OFFSET -6.715286 -2.359680 3.363841
									CHANNELS 3 Xrotation Yrotation Zrotation
									JOINT RightHandThumb2
									{
										OFFSET -2.507072 -1.447464 1.447461
										CHANNELS 3 Xrotation Yrotation Zrotation
										JOINT RightHandThumb3
										{
											OFFSET -2.898338 -1.673355 1.673357
											CHANNELS 3 Xrotation Yrotation Zrotation
											End Site
											{
												OFFSET 0.295959 3.727692 -0.131651
											}
										}
									}
								}
								JOINT RightHandIndex1
								{
									OFFSET -14.190811 -0.254547 3.840278
									CHANNELS 3 Xrotation Yrotation Zrotation
									JOINT RightHandIndex2
									{
										OFFSET -3.551727 0.000000 -0.000000
										CHANNELS 3 Xrotation Yrotation Zrotation
										JOINT RightHandIndex3
										{
											OFFSET -2.894196 0.000000 0.000000
											CHANNELS 3 Xrotation Yrotation Zrotation
											End Site
											{
												OFFSET 1.000603 2.690872 0.366626
											}
										}
									}
								}
								JOINT RightHandMiddle1
								{
									OFFSET -13.776489 0.000000 0.000000
									CHANNELS 3 Xrotation Yrotation Zrotation
									JOINT RightHandMiddle2
									{
										OFFSET -3.438232 0.000000 0.000000
										CHANNELS 3 Xrotation Yrotation Zrotation
										JOINT RightHandMiddle3
										{
											OFFSET -3.691551 0.000000 0.000000
											CHANNELS 3 Xrotation Yrotation Zrotation
											End Site
											{
												OFFSET 1.082298 3.499527 0.457670
											}
										}
									}
								}
								JOINT RightHandRing1
								{
									OFFSET -13.966164 -0.268127 -3.067488
									CHANNELS 3 Xrotation Yrotation Zrotation
									JOINT RightHandRing2
									{
										OFFSET -3.162567 0.000000 0.000000
										CHANNELS 3 Xrotation Yrotation Zrotation
										JOINT RightHandRing3
										{
											OFFSET -3.324348 0.000000 0.000000
											CHANNELS 3 Xrotation Yrotation Zrotation
											End Site
											{
												OFFSET 0.861900 3.184998 0.405154
											}
										}
									}
								}
								JOINT RightHandPinky1
								{
									OFFSET -13.131393 -0.168503 -5.746925
									CHANNELS 3 Xrotation Yrotation Zrotation
									JOINT RightHandPinky2
									{
										OFFSET -2.849182 0.000000 0.000000
										CHANNELS 3 Xrotation Yrotation Zrotation
										JOINT RightHandPinky3
										{
											OFFSET -2.805038 0.000000 0.000000
											CHANNELS 3 Xrotation Yrotation Zrotation
											End Site
											{
												OFFSET 0.882500 2.642609 0.325652
											}
										}
									}
								}
							}
							JOINT Right_Sleeve
							{
								OFFSET -6.592125 -0.646545 0.805568
								CHANNELS 3 Xrotation Yrotation Zrotation
								End Site
								{
									OFFSET 0.000179 20.275787 -0.000000
								}
							}
						}
					}
				}
				JOINT Bind_Right_JacketString
				{
					OFFSET -3.534800 11.969597 7.200700
					CHANNELS 3 Xrotation Yrotation Zrotation
					JOINT Bind_Right_JacketString1
					{
						OFFSET -0.319900 -6.102600 2.794100
						CHANNELS 3 Xrotation Yrotation Zrotation
						End Site
						{
							OFFSET 0.000000 6.719452 0.000000
						}
					}
				}
				JOINT Bind_Left_JacketString
				{
					OFFSET 2.904800 11.969597 7.200700
					CHANNELS 3 Xrotation Yrotation Zrotation
					JOINT Bind_Left_JacketString1
					{
						OFFSET 0.364800 -5.904503 3.186800
						CHANNELS 3 Xrotation Yrotation Zrotation
						End Site
						{
							OFFSET 0.000000 6.719513 0.000000
						}
					}
				}
				JOINT HairE
				{
					OFFSET 5.915200 17.612701 -11.592200
					CHANNELS 3 Xrotation Yrotation Zrotation
					JOINT HairE1
					{
						OFFSET 0.289200 -7.171898 -1.284500
						CHANNELS 3 Xrotation Yrotation Zrotation
						End Site
						{
							OFFSET 0.000000 7.291756 0.000000
						}
					}
				}
				JOINT HairF
				{
					OFFSET -0.864800 17.612701 -11.592200
					CHANNELS 3 Xrotation Yrotation Zrotation
					JOINT HairF1
					{
						OFFSET 0.000000 -14.087097 -2.127501
						CHANNELS 3 Xrotation Yrotation Zrotation
						End Site
						{
							OFFSET 0.000000 14.246841 0.000000
						}
					}
				}
				JOINT HairG
				{
					OFFSET -8.087700 17.612701 -11.592200
					CHANNELS 3 Xrotation Yrotation Zrotation
					JOINT HairG1
					{
						OFFSET -0.293600 -6.081398 -0.910100
						CHANNELS 3 Xrotation Yrotation Zrotation
						End Site
						{
							OFFSET 0.000000 6.156120 0.000000
						}
					}
				}
			}
		}
	}
	JOINT Pouch
	{
		OFFSET 0.000000 4.394501 10.847300
		CHANNELS 3 Xrotation Yrotation Zrotation
		End Site
		{
			OFFSET 0.000000 21.880577 0.000000
		}
	}
	JOINT Bag
	{
		OFFSET -13.229000 4.813004 -0.593300
		CHANNELS 3 Xrotation Yrotation Zrotation
		End Site
		{
			OFFSET 0.000000 21.880577 0.000000
		}
	}
	JOINT OccupyGuyFacialAnim_Joint
	{
		OFFSET 1.000000 -70.206398 -1.655000
		CHANNELS 3 Xrotation Yrotation Zrotation
		End Site
		{
			OFFSET 0.000000 21.880577 0.000000
		}
	}
}
MOTION
Frames: 5
Frame Time: 0.033333
4.069827 57.220795 6.100464 23.484202 -21.777283 10.199271 -0.000000 0.000000 -0.000001 -78.320823 14.309618 16.963492 65.783649 6.169310 1.128704 -11.220568 12.877178 -1.141084 -0.000000 -0.000000 -0.000000 0.000002 0.000000 -0.000000 -60.825041 -12.929028 -24.354061 75.245981 10.112576 -4.638457 -37.996766 -3.754214 8.168775 0.000000 0.000002 0.000000 -0.000003 0.000000 -0.000000 21.634561 -7.056314 -8.658491 4.801848 -1.077835 -2.274995 4.977949 -2.131563 -1.235606 2.002364 4.923587 0.775984 -45.037752 17.671180 10.112620 -0.000000 0.000000 0.000000 -0.000000 0.000000 0.000000 -0.000000 0.000000 0.000000 -0.000000 0.000000 0.000000 -0.000000 0.000000 0.000000 -0.000000 0.000000 0.000000 -0.000000 0.000000 0.000000 -0.000000 0.000000 0.000000 -0.000000 0.000000 0.000000 5.935709 -15.318480 -9.344394 -29.449696 -7.034292 -41.515970 -0.002262 -92.438510 -0.002296 -130.686176 -2.273001 20.617706 22.148061 -26.897980 21.633185 -18.745616 11.865083 -5.317509 0.000001 -0.000001 -0.000001 2.904035 7.530976 -72.179178 2.284157 4.641102 -52.390044 -0.000000 -0.000001 -0.000000 2.696758 7.450401 -71.638282 3.021104 5.123231 -61.032760 -0.000003 0.000001 -0.000004 1.342553 7.033910 -72.174083 3.334051 5.283725 -64.482231 0.000001 0.000002 0.000001 -0.327051 7.372401 -81.774372 1.697282 4.124429 -44.721814 -0.000003 -0.000001 -0.000001 -0.000002 -0.000002 0.000000 -1.498518 23.902452 13.309189 -6.975357 18.316115 36.271043 0.000024 112.998581 -0.000015 -28.350175 -16.977407 8.713674 32.922055 22.712640 -0.413431 18.714756 -28.924048 -1.918856 -0.000001 0.000000 0.000001 -1.405815 1.855298 16.997052 2.390369 -4.069314 60.846966 -0.000002 -0.000000 0.000002 6.649185 -8.182843 66.618749 5.586132 -4.563772 101.518256 0.000002 -0.000004 -0.000001 7.825142 -7.847752 76.045878 4.195821 -4.634316 84.308693 -0.000002 -0.000003 -0.000002 6.694624 -7.189459 83.477527 2.346278 -4.044486 60.223772 0.000000 -0.000001 0.000000 0.000003 -0.000001 -0.000000 -0.000000 0.000000 -0.000000 -0.000002 -0.000001 0.000001 -0.000000 0.000000 -0.000000 -0.000000 0.000000 -0.000000 -0.000000 0.000000 -0.000000 -0.000002 -0.000001 0.000002 -0.000000 0.000000 -0.000000 -0.000000 0.000000 -0.000000 -0.000000 0.000000 -0.000000 -0.000002 -0.000001 0.000002 -0.000000 0.000000 -0.000001 -0.000000 0.000000 -0.000001 -0.000000 0.000000 -0.000001 
4.166848 57.610054 6.675201 23.308669 -22.316806 10.128156 0.000001 -0.000001 0.000001 -77.316792 15.133858 17.352456 65.420993 5.582889 1.195325 -11.975612 13.150307 -0.850436 -0.000000 -0.000002 -0.000000 -0.000000 0.000000 0.000001 -59.485873 -13.280679 -24.206093 73.738995 10.121096 -4.915804 -37.619053 -3.513629 8.787739 0.000000 0.000000 -0.000000 -0.000002 -0.000001 -0.000003 21.457150 -6.818300 -8.713092 4.757708 -1.030289 -2.263191 4.925560 -2.044278 -1.273377 2.032160 4.788970 0.850557 -44.238387 17.779886 9.900673 0.000001 -0.000000 -0.000000 0.000001 -0.000000 -0.000000 0.000001 -0.000000 -0.000001 0.000001 -0.000000 -0.000001 0.000001 -0.000000 -0.000000 0.000001 -0.000000 -0.000001 0.000001 -0.000000 -0.000000 0.000001 -0.000000 -0.000000 0.000001 -0.000000 -0.000000 6.070656 -15.307858 -9.376932 -29.668723 -6.762892 -41.567954 0.005731 -92.097403 0.005777 -131.050293 -1.813421 20.527029 22.148509 -26.900061 21.633333 -18.745879 11.865093 -5.316998 -0.000000 0.000001 -0.000003 2.904486 7.531129 -72.179192 2.284159 4.641104 -52.390027 0.000003 -0.000001 -0.000000 2.697260 7.450585 -71.638303 3.021106 5.123245 -61.032747 0.000001 0.000002 -0.000004 1.342253 7.033823 -72.174076 3.334062 5.283723 -64.482231 -0.000001 -0.000004 -0.000001 -0.327752 7.372304 -81.774351 1.697280 4.124442 -44.721814 -0.000000 -0.000002 0.000001 0.000000 0.000002 0.000000 -1.505096 23.838258 13.693526 -7.118735 18.983674 35.884086 -0.000016 112.880603 0.000007 -28.408977 -17.786530 8.477406 33.603923 23.197776 -1.367339 19.668194 -29.228586 -0.305899 -0.000002 0.000000 0.000003 -1.429601 1.872193 17.176884 2.410829 -4.080640 61.135186 -0.000001 0.000000 0.000000 6.919479 -8.257734 67.125105 5.587251 -4.563552 101.532470 0.000002 -0.000003 -0.000001 7.851101 -7.814846 76.549933 4.251014 -4.639465 84.991172 0.000000 -0.000001 -0.000003 6.616579 -7.163689 83.871267 2.353580 -4.048654 60.327270 0.000000 0.000002 0.000001 -0.000002 0.000000 0.000002 0.000000 0.000001 0.000002 -0.000001 0.000003 -0.000001 0.000000 0.000001 0.000002 0.000000 0.000001 0.000002 0.000000 0.000001 0.000002 -0.000001 0.000003 -0.000001 0.000000 0.000001 0.000002 0.000000 0.000001 0.000002 0.000000 0.000001 0.000002 -0.000001 0.000003 -0.000001 0.000001 -0.000001 0.000001 0.000001 -0.000001 0.000001 0.000001 -0.000001 0.000001 
4.272711 58.023567 7.307758 23.136566 -22.862769 10.041820 0.000001 0.000000 -0.000000 -76.235846 15.985247 17.725372 65.015683 4.991620 1.239689 -12.781663 13.412395 -0.539582 0.000000 -0.000000 -0.000000 0.000002 0.000000 0.000000 -58.040175 -13.666094 -24.102419 72.066248 10.131130 -5.148092 -37.192405 -3.214063 9.458804 0.000000 0.000001 0.000000 -0.000001 -0.000004 -0.000002 21.285730 -6.578043 -8.760443 4.714478 -0.982395 -2.250884 4.874202 -1.956287 -1.309445 2.061971 4.654972 0.926093 -43.458206 17.884365 9.694327 0.000000 0.000001 0.000000 0.000000 0.000001 0.000000 0.000000 0.000001 0.000000 0.000000 0.000001 -0.000000 0.000000 0.000000 -0.000000 0.000000 0.000001 -0.000000 0.000000 0.000000 -0.000000 0.000000 0.000001 0.000000 0.000000 0.000001 0.000000 6.204171 -15.297467 -9.408435 -30.029958 -6.595515 -41.555445 -0.013672 -91.670817 -0.013644 -131.466825 -1.331395 20.449359 22.149007 -26.902276 21.633501 -18.746156 11.865110 -5.316483 0.000001 0.000001 0.000001 2.904929 7.531269 -72.179213 2.284154 4.641111 -52.390047 -0.000001 0.000001 0.000002 2.697770 7.450746 -71.638316 3.021109 5.123251 -61.032747 -0.000000 0.000004 -0.000004 1.341953 7.033716 -72.174049 3.334045 5.283722 -64.482231 0.000004 0.000001 -0.000002 -0.328444 7.372201 -81.774331 1.697278 4.124427 -44.721835 0.000000 -0.000001 0.000001 -0.000000 0.000001 0.000001 -1.509307 23.777357 14.070399 -7.429879 19.715315 35.514600 0.000069 112.709787 -0.000063 -28.467737 -18.651638 8.258896 34.297778 23.667435 -2.332117 20.638506 -29.493197 1.319977 -0.000002 0.000001 0.000004 -1.453520 1.888920 17.356428 2.431331 -4.091855 61.422942 -0.000001 -0.000001 0.000002 7.190947 -8.328331 67.630976 5.588390 -4.563323 101.546683 -0.000000 0.000004 -0.000000 7.876282 -7.781877 77.053037 4.306160 -4.643951 85.672647 -0.000001 0.000001 -0.000003 6.538149 -7.139229 84.264256 2.360873 -4.052776 60.430611 -0.000000 0.000006 0.000003 0.000002 -0.000000 -0.000002 0.000001 0.000000 -0.000001 -0.000001 -0.000001 0.000001 0.000001 0.000000 -0.000001 0.000001 0.000000 -0.000001 0.000001 0.000000 -0.000001 -0.000001 -0.000001 0.000001 0.000001 0.000000 -0.000001 0.000001 0.000000 -0.000001 0.000001 0.000000 -0.000001 -0.000001 -0.000001 0.000001 0.000001 0.000000 -0.000000 0.000001 0.000000 -0.000000 0.000001 0.000000 -0.000000 
4.387823 58.454178 7.984374 22.965642 -23.409430 9.940146 -0.000000 0.000000 -0.000001 -75.085991 16.843277 18.066240 64.562131 4.410133 1.261819 -13.613917 13.665850 -0.217066 0.000000 -0.000000 -0.000000 0.000004 -0.000000 -0.000000 -56.378215 -13.731113 -23.733634 70.256842 10.141231 -5.317021 -36.584867 -3.358541 10.061071 -0.000000 -0.000001 0.000000 0.000001 0.000003 0.000000 21.121696 -6.340041 -8.799971 4.672636 -0.935334 -2.238470 4.824373 -1.868660 -1.344009 2.091386 4.521938 1.002456 -42.701667 17.986825 9.495247 -0.000001 -0.000000 -0.000000 -0.000001 -0.000000 -0.000000 -0.000001 -0.000000 -0.000000 -0.000001 -0.000000 -0.000000 -0.000001 0.000000 -0.000000 -0.000001 -0.000000 -0.000000 -0.000001 0.000000 -0.000000 -0.000001 -0.000000 -0.000000 -0.000001 -0.000000 -0.000000 6.336264 -15.287258 -9.438950 -30.645983 -6.568891 -41.402527 0.010881 -91.094602 0.011018 -132.031313 -0.795596 20.491292 22.149532 -26.904571 21.633632 -18.746397 11.865137 -5.316005 -0.000000 -0.000000 0.000002 2.905407 7.531424 -72.179213 2.284160 4.641116 -52.390017 0.000001 0.000001 0.000002 2.698301 7.450930 -71.638323 3.021108 5.123234 -61.032747 0.000001 0.000004 -0.000004 1.341669 7.033654 -72.174083 3.334050 5.283720 -64.482225 -0.000002 0.000001 -0.000001 -0.329130 7.372131 -81.774324 1.697292 4.124415 -44.721835 0.000001 -0.000001 0.000001 0.000000 0.000000 0.000004 -1.509497 23.721809 14.431551 -8.077241 20.634234 35.209106 -0.000006 112.422066 0.000020 -28.603879 -19.727328 8.033552 35.002332 24.120654 -3.306067 21.622147 -29.717139 2.954458 -0.000003 0.000001 -0.000000 -1.477520 1.905475 17.535432 2.451830 -4.102920 61.709851 -0.000001 -0.000000 0.000000 7.463084 -8.394518 68.135536 5.589525 -4.563096 101.560849 0.000001 0.000000 -0.000001 7.900639 -7.748904 77.554489 4.361177 -4.647777 86.351992 0.000000 -0.000001 0.000002 6.459446 -7.116132 84.655919 2.368163 -4.056901 60.533617 0.000000 0.000003 -0.000001 -0.000001 0.000001 -0.000002 0.000002 0.000001 -0.000000 -0.000000 0.000003 0.000001 0.000002 0.000001 -0.000000 0.000002 0.000001 -0.000000 0.000002 0.000001 -0.000000 -0.000000 0.000003 0.000001 0.000002 0.000001 -0.000000 0.000002 0.000001 -0.000000 0.000002 0.000001 -0.000000 -0.000000 0.000003 0.000001 -0.000000 0.000000 -0.000001 -0.000000 0.000000 -0.000001 -0.000000 0.000000 -0.000001 
4.512389 58.894081 8.690584 22.793634 -23.950588 9.823806 0.000002 -0.000001 -0.000000 -73.874930 17.680472 18.357091 64.058992 3.859725 1.258145 -14.448809 13.912054 0.106571 0.000000 -0.000002 -0.000000 -0.000001 0.000000 -0.000000 -54.672724 -13.368952 -23.063090 68.521264 10.144365 -5.409468 -35.415446 -4.134890 10.290103 -0.000000 0.000001 -0.000000 0.000003 -0.000002 -0.000002 20.966258 -6.109476 -8.831682 4.632676 -0.890255 -2.226375 4.776637 -1.782567 -1.377561 2.119913 4.390280 1.079477 -41.973237 18.089534 9.305003 0.000001 -0.000000 0.000000 0.000001 -0.000000 0.000000 0.000001 -0.000000 0.000000 0.000001 -0.000000 0.000000 -0.000001 0.000000 -0.000000 0.000001 -0.000000 0.000000 -0.000001 0.000000 -0.000000 0.000001 -0.000000 0.000000 0.000001 -0.000000 0.000000 6.466859 -15.277217 -9.468502 -31.465800 -6.668722 -41.125098 0.002540 -90.391154 0.003103 -132.719837 -0.241050 20.628203 22.150102 -26.907028 21.633781 -18.746678 11.865141 -5.315462 -0.000000 -0.000001 0.000002 2.905861 7.531546 -72.179226 2.284155 4.641086 -52.390037 -0.000004 0.000003 0.000002 2.698812 7.451078 -71.638323 3.021111 5.123238 -61.032781 0.000003 0.000001 -0.000001 1.341384 7.033540 -72.174063 3.334044 5.283731 -64.482218 0.000000 0.000003 -0.000001 -0.329837 7.371989 -81.774296 1.697289 4.124412 -44.721838 -0.000001 -0.000001 0.000003 -0.000001 0.000000 -0.000004 -1.506102 23.669875 14.778340 -9.032777 21.724508 34.985452 0.000079 111.995479 -0.000071 -28.795415 -20.966524 7.852908 35.716196 24.556536 -4.287401 22.615453 -29.899928 4.593104 -0.000002 -0.000002 0.000003 -1.501549 1.921809 17.713600 2.472296 -4.113835 61.995441 0.000003 -0.000002 0.000002 7.735418 -8.456253 68.637951 5.590617 -4.562838 101.574953 0.000001 0.000003 -0.000000 7.924188 -7.716013 78.053476 4.415972 -4.650932 87.028180 0.000002 0.000005 0.000001 6.380641 -7.094427 85.045616 2.375431 -4.060977 60.636131 -0.000002 -0.000001 0.000002 0.000002 0.000001 -0.000000 -0.000003 -0.000001 -0.000001 -0.000003 0.000001 -0.000000 -0.000003 -0.000001 0.000001 -0.000003 -0.000001 0.000001 -0.000003 -0.000001 -0.000001 -0.000003 0.000001 -0.000000 -0.000003 -0.000001 0.000001 -0.000003 -0.000001 0.000001 -0.000003 -0.000001 -0.000001 -0.000003 0.000001 -0.000000 0.000002 -0.000001 -0.000000 0.000002 -0.000001 -0.000000 0.000002 -0.000001 -0.000000 
